<?xml version="1.0" standalone="no"?><!DOCTYPE svg PUBLIC "-//W3C//DTD SVG 1.1//EN" "http://www.w3.org/Graphics/SVG/1.1/DTD/svg11.dtd"><svg t="1626768032324" class="icon" viewBox="0 0 1024 1024" version="1.1" xmlns="http://www.w3.org/2000/svg" p-id="2348" xmlns:xlink="http://www.w3.org/1999/xlink" width="200" height="200"><defs><style type="text/css"></style></defs><path d="M214.357 512.026a297.735 297.735 0 0 1 15.714-95.072l-176.21-131.79a506.264 506.264 0 0 0 0 453.516l176.105-132.001a297.106 297.106 0 0 1-15.714-94.653" fill="#FBBC05" p-id="2349"></path><path d="M523.825 209.472a306.849 306.849 0 0 1 192.71 67.467l152.377-148.92A529.679 529.679 0 0 0 53.808 285.164l176.263 131.791A308.001 308.001 0 0 1 523.825 209.42" fill="#EA4335" p-id="2350"></path><path d="M523.825 814.528a308.001 308.001 0 0 1-293.806-207.482l-176.21 131.79a523.183 523.183 0 0 0 470.016 285.112 505.164 505.164 0 0 0 341.159-127.549L697.678 769.951a329.111 329.111 0 0 1-173.906 44.786" fill="#34A853" p-id="2351"></path><path d="M1023.699 512.183a415.907 415.907 0 0 0-11.943-93.081H523.772v197.844H804.64A230.477 230.477 0 0 1 697.783 769.95L865.036 896.61a504.064 504.064 0 0 0 158.663-384.426" fill="#4285F4" p-id="2352"></path></svg>